<svg xmlns="http://www.w3.org/2000/svg" width="181" height="181" fill="none" viewBox="0 0 181 181">
  <path fill="#222" d="M9.04 51.227H3.013v6.026H9.04v-6.026Zm0 6.026H3.013v6.027H9.04v-6.027Zm0 6.027H3.013v6.027H9.04V63.28Zm0 12.053H3.013v6.027H9.04v-6.027Zm0 6.027H3.013v6.027H9.04V81.36Zm0 6.027H3.013v6.026H9.04v-6.026Zm0 6.026H3.013v6.027H9.04v-6.027Zm0 6.027H3.013v6.027H9.04V99.44Zm0 6.027H3.013v6.026H9.04v-6.026Zm0 6.026H3.013v6.027H9.04v-6.027Zm6.027-60.266H9.04v6.026h6.027v-6.026Zm0 6.026H9.04v6.027h6.027v-6.027Zm0 12.054H9.04v6.026h6.027v-6.026Zm0 12.053H9.04v6.027h6.027V81.36Zm0 12.053H9.04v6.027h6.027v-6.027Zm0 6.027H9.04v6.027h6.027V99.44Zm0 6.027H9.04v6.026h6.027v-6.026Zm0 6.026H9.04v6.027h6.027v-6.027Zm6.026-60.266h-6.026v6.026h6.026v-6.026Zm0 12.053h-6.026v6.027h6.026V63.28Zm0 6.027h-6.026v6.026h6.026v-6.026Zm0 18.08h-6.026v6.026h6.026v-6.026Zm0 6.026h-6.026v6.027h6.026v-6.027Zm0 24.107h-6.026v6.027h6.026v-6.027Zm6.027-66.293h-6.027v6.026h6.027v-6.026Zm0 12.053h-6.027v6.027h6.027V63.28Zm0 6.027h-6.027v6.026h6.027v-6.026Zm0 12.053h-6.027v6.027h6.027V81.36Zm0 18.08h-6.027v6.027h6.027V99.44Zm0 12.053h-6.027v6.027h6.027v-6.027Zm6.027-60.266H27.12v6.026h6.027v-6.026Zm0 66.293H27.12v6.027h6.027v-6.027Zm0 6.027H27.12v6.026h6.027v-6.026Zm6.026-66.294h-6.026v6.027h6.026v-6.027Zm0 6.027h-6.026v6.027h6.026V63.28Zm0 6.027h-6.026v6.026h6.026v-6.026Zm0 24.106h-6.026v6.027h6.026v-6.027Zm0 6.027h-6.026v6.027h6.026V99.44Zm0 6.027h-6.026v6.026h6.026v-6.026Zm0 12.053h-6.026v6.027h6.026v-6.027Zm0 6.027h-6.026v6.026h6.026v-6.026Zm6.027-72.32h-6.027v6.026H45.2v-6.026Zm0 12.053h-6.027v6.027H45.2V63.28Zm0 12.053h-6.027v6.027H45.2v-6.027Zm0 12.054h-6.027v6.026H45.2v-6.026Zm0 12.053h-6.027v6.027H45.2V99.44Zm0 12.053h-6.027v6.027H45.2v-6.027Zm0 12.054h-6.027v6.026H45.2v-6.026Zm6.027-72.32H45.2v6.026h6.027v-6.026Zm0 24.106H45.2v6.027h6.027v-6.027Zm0 6.027H45.2v6.027h6.027V81.36Zm0 6.027H45.2v6.026h6.027v-6.026Zm0 12.053H45.2v6.027h6.027V99.44Zm0 6.027H45.2v6.026h6.027v-6.026Zm0 6.026H45.2v6.027h6.027v-6.027Zm0 6.027H45.2v6.027h6.027v-6.027Zm0 6.027H45.2v6.026h6.027v-6.026ZM57.254 9.04h-6.027v6.027h6.027V9.04Zm0 6.027h-6.027v6.026h6.027v-6.026Zm0 12.053h-6.027v6.027h6.027V27.12Zm0 12.053h-6.027V45.2h6.027v-6.027Z"/>
  <path fill="#222" d="M57.254 45.2h-6.027v6.027h6.027V45.2Zm0 12.053h-6.027v6.027h6.027v-6.027Zm0 54.24h-6.027v6.027h6.027v-6.027Zm0 12.054h-6.027v6.026h6.027v-6.026Zm0 12.053h-6.027v6.027h6.027V135.6Zm0 12.053h-6.027v6.027h6.027v-6.027Zm0 6.027h-6.027v6.027h6.027v-6.027Zm0 6.027h-6.027v6.026h6.027v-6.026Zm0 6.026h-6.027v6.027h6.027v-6.027Zm0 6.027h-6.027v6.027h6.027v-6.027ZM63.28 3.013h-6.027V9.04h6.027V3.013Zm0 6.027h-6.027v6.027h6.027V9.04Zm0 12.053h-6.027v6.027h6.027v-6.027Zm0 6.027h-6.027v6.027h6.027V27.12Zm0 36.16h-6.027v6.027h6.027V63.28Zm0 6.027h-6.027v6.026h6.027v-6.026Zm0 6.026h-6.027v6.027h6.027v-6.027Zm0 6.027h-6.027v6.027h6.027V81.36Zm0 6.027h-6.027v6.026h6.027v-6.026Zm0 18.08h-6.027v6.026h6.027v-6.026Z"/>
  <path fill="#222" d="M63.28 111.493h-6.027v6.027h6.027v-6.027Zm0 6.027h-6.027v6.027h6.027v-6.027Zm0 42.187h-6.027v6.026h6.027v-6.026Zm0 12.053h-6.027v6.027h6.027v-6.027ZM69.307 9.04H63.28v6.027h6.027V9.04Zm0 12.053H63.28v6.027h6.027v-6.027Zm0 6.027H63.28v6.027h6.027V27.12Zm0 6.027H63.28v6.026h6.027v-6.026Zm0 6.026H63.28V45.2h6.027v-6.027Zm0 12.054H63.28v6.026h6.027v-6.026Zm0 24.106H63.28v6.027h6.027v-6.027Zm0 6.027H63.28v6.027h6.027V81.36Zm0 18.08H63.28v6.027h6.027V99.44Zm0 12.053H63.28v6.027h6.027v-6.027Zm0 36.16H63.28v6.027h6.027v-6.027Zm0 6.027H63.28v6.027h6.027v-6.027Zm0 12.053H63.28v6.027h6.027v-6.027Zm0 6.027H63.28v6.027h6.027v-6.027Zm6.026-150.667h-6.026v6.027h6.026v-6.027Zm0 12.054h-6.026v6.026h6.026v-6.026Zm0 12.053h-6.026v6.027h6.026V45.2Zm0 6.027h-6.026v6.026h6.026v-6.026Zm0 6.026h-6.026v6.027h6.026v-6.027Zm0 6.027h-6.026v6.027h6.026V63.28Zm0 6.027h-6.026v6.026h6.026v-6.026Zm0 24.106h-6.026v6.027h6.026v-6.027Zm0 12.054h-6.026v6.026h6.026v-6.026Zm0 6.026h-6.026v6.027h6.026v-6.027Zm0 6.027h-6.026v6.027h6.026v-6.027Zm0 6.027h-6.026v6.026h6.026v-6.026Zm0 6.026h-6.026v6.027h6.026v-6.027Zm0 6.027h-6.026v6.027h6.026V135.6Zm0 30.133h-6.026v6.027h6.026v-6.027ZM81.36 9.04h-6.026v6.027h6.026V9.04Zm0 30.133h-6.026V45.2h6.026v-6.027Zm0 12.054h-6.026v6.026h6.026v-6.026Zm0 12.053h-6.026v6.027h6.026V63.28Zm0 24.107h-6.026v6.026h6.026v-6.026Zm0 18.08h-6.026v6.026h6.026v-6.026Zm0 12.053h-6.026v6.027h6.026v-6.027Zm0 6.027h-6.026v6.026h6.026v-6.026Zm0 12.053h-6.026v6.027h6.026V135.6Zm0 6.027h-6.026v6.026h6.026v-6.026Zm0 18.08h-6.026v6.026h6.026v-6.026ZM87.387 3.013H81.36V9.04h6.027V3.013Zm0 6.027H81.36v6.027h6.027V9.04Zm0 6.027H81.36v6.026h6.027v-6.026Zm0 6.026H81.36v6.027h6.027v-6.027Zm0 24.107H81.36v6.027h6.027V45.2Zm0 24.107H81.36v6.026h6.027v-6.026Zm0 6.026H81.36v6.027h6.027v-6.027Zm0 6.027H81.36v6.027h6.027V81.36Zm0 6.027H81.36v6.026h6.027v-6.026Zm0 6.026H81.36v6.027h6.027v-6.027Zm0 6.027H81.36v6.027h6.027V99.44Zm0 12.053H81.36v6.027h6.027v-6.027Zm0 12.054H81.36v6.026h6.027v-6.026Zm0 6.026H81.36v6.027h6.027v-6.027Zm0 6.027H81.36v6.027h6.027V135.6Zm0 6.027H81.36v6.026h6.027v-6.026Zm0 24.106H81.36v6.027h6.027v-6.027Zm0 6.027H81.36v6.027h6.027v-6.027ZM93.413 3.013h-6.026V9.04h6.026V3.013Zm0 6.027h-6.026v6.027h6.026V9.04Zm0 12.053h-6.026v6.027h6.026v-6.027Zm0 6.027h-6.026v6.027h6.026V27.12Zm0 12.053h-6.026V45.2h6.026v-6.027Zm0 6.027h-6.026v6.027h6.026V45.2Zm0 24.107h-6.026v6.026h6.026v-6.026Zm0 6.026h-6.026v6.027h6.026v-6.027Zm0 6.027h-6.026v6.027h6.026V81.36Zm0 6.027h-6.026v6.026h6.026v-6.026Zm0 12.053h-6.026v6.027h6.026V99.44Zm0 6.027h-6.026v6.026h6.026v-6.026Zm0 24.106h-6.026v6.027h6.026v-6.027Zm0 6.027h-6.026v6.027h6.026V135.6Zm0 6.027h-6.026v6.026h6.026v-6.026Zm0 18.08h-6.026v6.026h6.026v-6.026Zm0 12.053h-6.026v6.027h6.026v-6.027ZM99.44 9.04h-6.027v6.027h6.027V9.04Zm0 18.08h-6.027v6.027h6.027V27.12Zm0 6.027h-6.027v6.026h6.027v-6.026Zm0 18.08h-6.027v6.026h6.027v-6.026Zm0 18.08h-6.027v6.026h6.027v-6.026Zm0 48.213h-6.027v6.027h6.027v-6.027Zm0 6.027h-6.027v6.026h6.027v-6.026Zm0 18.08h-6.027v6.026h6.027v-6.026Zm6.027-138.614H99.44V9.04h6.027V3.013Zm0 6.027H99.44v6.027h6.027V9.04Zm0 6.027H99.44v6.026h6.027v-6.026Zm0 6.026H99.44v6.027h6.027v-6.027Zm0 6.027H99.44v6.027h6.027V27.12Zm0 12.053H99.44V45.2h6.027v-6.027Zm0 6.027H99.44v6.027h6.027V45.2Zm0 12.053H99.44v6.027h6.027v-6.027Zm0 12.054H99.44v6.026h6.027v-6.026Zm0 6.026H99.44v6.027h6.027v-6.027Zm0 6.027H99.44v6.027h6.027V81.36Zm0 6.027H99.44v6.026h6.027v-6.026Zm0 6.026H99.44v6.027h6.027v-6.027Zm0 24.107H99.44v6.027h6.027v-6.027Zm0 6.027H99.44v6.026h6.027v-6.026Zm0 6.026H99.44v6.027h6.027v-6.027Zm0 6.027H99.44v6.027h6.027V135.6Zm0 6.027H99.44v6.026h6.027v-6.026Zm0 12.053H99.44v6.027h6.027v-6.027Zm0 12.053H99.44v6.027h6.027v-6.027Zm6.026-150.666h-6.026v6.026h6.026v-6.026Zm0 12.053h-6.026v6.027h6.026V27.12Zm0 18.08h-6.026v6.027h6.026V45.2Zm0 12.053h-6.026v6.027h6.026v-6.027Zm0 6.027h-6.026v6.027h6.026V63.28Zm0 12.053h-6.026v6.027h6.026v-6.027Zm0 6.027h-6.026v6.027h6.026V81.36Zm0 12.053h-6.026v6.027h6.026v-6.027Zm0 12.054h-6.026v6.026h6.026v-6.026Zm0 18.08h-6.026v6.026h6.026v-6.026Zm0 18.08h-6.026v6.026h6.026v-6.026Zm0 24.106h-6.026v6.027h6.026v-6.027Zm0 6.027h-6.026v6.027h6.026v-6.027ZM117.52 3.013h-6.027V9.04h6.027V3.013Zm0 18.08h-6.027v6.027h6.027v-6.027Zm0 6.027h-6.027v6.027h6.027V27.12Zm0 12.053h-6.027V45.2h6.027v-6.027Zm0 12.054h-6.027v6.026h6.027v-6.026Zm0 6.026h-6.027v6.027h6.027v-6.027Zm0 12.054h-6.027v6.026h6.027v-6.026Zm0 12.053h-6.027v6.027h6.027V81.36Zm0 6.027h-6.027v6.026h6.027v-6.026Zm0 18.08h-6.027v6.026h6.027v-6.026Zm0 6.026h-6.027v6.027h6.027v-6.027Zm0 12.054h-6.027v6.026h6.027v-6.026Zm0 6.026h-6.027v6.027h6.027v-6.027Zm0 12.054h-6.027v6.026h6.027v-6.026Zm0 18.08h-6.027v6.026h6.027v-6.026Zm0 6.026h-6.027v6.027h6.027v-6.027Zm0 6.027h-6.027v6.027h6.027v-6.027Zm6.027-162.72h-6.027v6.027h6.027V9.04Zm0 6.027h-6.027v6.026h6.027v-6.026Zm0 6.026h-6.027v6.027h6.027v-6.027Zm0 42.187h-6.027v6.027h6.027V63.28Zm0 6.027h-6.027v6.026h6.027v-6.026Zm0 6.026h-6.027v6.027h6.027v-6.027Zm0 18.08h-6.027v6.027h6.027v-6.027Zm0 12.054h-6.027v6.026h6.027v-6.026Zm0 12.053h-6.027v6.027h6.027v-6.027Zm0 18.08h-6.027v6.027h6.027V135.6Zm0 6.027h-6.027v6.026h6.027v-6.026Zm0 24.106h-6.027v6.027h6.027v-6.027Zm0 6.027h-6.027v6.027h6.027v-6.027Zm6.027-168.747h-6.027V9.04h6.027V3.013Zm0 30.134h-6.027v6.026h6.027v-6.026Zm0 6.026h-6.027V45.2h6.027v-6.027Zm0 30.134h-6.027v6.026h6.027v-6.026Zm0 6.026h-6.027v6.027h6.027v-6.027Zm0 24.107h-6.027v6.027h6.027V99.44Zm0 6.027h-6.027v6.026h6.027v-6.026Zm0 6.026h-6.027v6.027h6.027v-6.027Zm0 6.027h-6.027v6.027h6.027v-6.027Zm0 6.027h-6.027v6.026h6.027v-6.026Zm0 6.026h-6.027v6.027h6.027v-6.027Zm0 6.027h-6.027v6.027h6.027V135.6Zm0 6.027h-6.027v6.026h6.027v-6.026Z"/>
  <path fill="#222" d="M129.574 147.653h-6.027v6.027h6.027v-6.027Zm0 6.027h-6.027v6.027h6.027v-6.027Zm0 6.027h-6.027v6.026h6.027v-6.026Zm6.026-108.48h-6.027v6.026h6.027v-6.026Zm0 12.053h-6.027v6.027h6.027V63.28Zm0 6.027h-6.027v6.026h6.027v-6.026Zm0 12.053h-6.027v6.027h6.027V81.36Zm0 18.08h-6.027v6.027h6.027V99.44Zm0 6.027h-6.027v6.026h6.027v-6.026Zm0 12.053h-6.027v6.027h6.027v-6.027Zm0 6.027h-6.027v6.026h6.027v-6.026Z"/>
  <path fill="#222" d="M135.6 147.653h-6.027v6.027h6.027v-6.027Zm0 18.08h-6.027v6.027h6.027v-6.027Zm0 6.027h-6.027v6.027h6.027v-6.027Zm6.027-120.533H135.6v6.026h6.027v-6.026Zm0 6.026H135.6v6.027h6.027v-6.027Zm0 24.107H135.6v6.027h6.027V81.36Zm0 30.133H135.6v6.027h6.027v-6.027Zm0 6.027H135.6v6.027h6.027v-6.027Zm0 6.027H135.6v6.026h6.027v-6.026Zm0 12.053H135.6v6.027h6.027V135.6Zm0 12.053H135.6v6.027h6.027v-6.027Zm0 12.054H135.6v6.026h6.027v-6.026Zm0 6.026H135.6v6.027h6.027v-6.027Zm0 6.027H135.6v6.027h6.027v-6.027Zm6.026-108.48h-6.026v6.027h6.026V63.28Zm0 6.027h-6.026v6.026h6.026v-6.026Zm0 6.026h-6.026v6.027h6.026v-6.027Zm0 6.027h-6.026v6.027h6.026V81.36Zm0 6.027h-6.026v6.026h6.026v-6.026Zm0 18.08h-6.026v6.026h6.026v-6.026Zm0 6.026h-6.026v6.027h6.026v-6.027Zm0 12.054h-6.026v6.026h6.026v-6.026Zm0 24.106h-6.026v6.027h6.026v-6.027Zm0 24.107h-6.026v6.027h6.026v-6.027Zm6.027-120.533h-6.027v6.026h6.027v-6.026Zm0 6.026h-6.027v6.027h6.027v-6.027Zm0 12.054h-6.027v6.026h6.027v-6.026Zm0 6.026h-6.027v6.027h6.027v-6.027Zm0 24.107h-6.027v6.027h6.027V99.44Zm0 12.053h-6.027v6.027h6.027v-6.027Zm0 12.054h-6.027v6.026h6.027v-6.026Zm0 6.026h-6.027v6.027h6.027v-6.027Zm0 6.027h-6.027v6.027h6.027V135.6Zm0 6.027h-6.027v6.026h6.027v-6.026Zm0 6.026h-6.027v6.027h6.027v-6.027Zm0 6.027h-6.027v6.027h6.027v-6.027Zm0 12.053h-6.027v6.027h6.027v-6.027Zm6.027-108.48h-6.027v6.027h6.027v-6.027Zm0 24.107h-6.027v6.027h6.027V81.36Zm0 12.053h-6.027v6.027h6.027v-6.027Zm0 6.027h-6.027v6.027h6.027V99.44Zm0 12.053h-6.027v6.027h6.027v-6.027Zm0 12.054h-6.027v6.026h6.027v-6.026Zm0 6.026h-6.027v6.027h6.027v-6.027Zm0 18.08h-6.027v6.027h6.027v-6.027Zm0 6.027h-6.027v6.027h6.027v-6.027Zm0 6.027h-6.027v6.026h6.027v-6.026Zm6.026-108.48h-6.026v6.026h6.026v-6.026Zm0 6.026h-6.026v6.027h6.026v-6.027Zm0 6.027h-6.026v6.027h6.026V63.28Zm0 6.027h-6.026v6.026h6.026v-6.026Zm0 12.053h-6.026v6.027h6.026V81.36Zm0 12.053h-6.026v6.027h6.026v-6.027Zm0 6.027h-6.026v6.027h6.026V99.44Zm0 6.027h-6.026v6.026h6.026v-6.026Zm0 12.053h-6.026v6.027h6.026v-6.027Zm0 24.107h-6.026v6.026h6.026v-6.026Zm0 6.026h-6.026v6.027h6.026v-6.027Zm0 12.054h-6.026v6.026h6.026v-6.026Zm0 12.053h-6.026v6.027h6.026v-6.027Zm6.027-120.533h-6.027v6.026h6.027v-6.026Zm0 6.026h-6.027v6.027h6.027v-6.027Zm0 6.027h-6.027v6.027h6.027V63.28Zm0 18.08h-6.027v6.027h6.027V81.36Zm0 6.027h-6.027v6.026h6.027v-6.026Zm0 12.053h-6.027v6.027h6.027V99.44Zm0 6.027h-6.027v6.026h6.027v-6.026Zm0 12.053h-6.027v6.027h6.027v-6.027Zm0 6.027h-6.027v6.026h6.027v-6.026Zm0 18.08h-6.027v6.026h6.027v-6.026Zm0 24.106h-6.027v6.027h6.027v-6.027Zm6.027-108.48h-6.027v6.027h6.027v-6.027Zm0 36.16h-6.027v6.027h6.027v-6.027Zm0 6.027h-6.027v6.027h6.027V99.44Zm0 6.027h-6.027v6.026h6.027v-6.026Zm0 12.053h-6.027v6.027h6.027v-6.027Zm0 6.027h-6.027v6.026h6.027v-6.026Zm0 6.026h-6.027v6.027h6.027v-6.027Zm0 18.08h-6.027v6.027h6.027v-6.027Zm0 6.027h-6.027v6.027h6.027v-6.027Zm0 12.053h-6.027v6.027h6.027v-6.027Zm0 6.027h-6.027v6.027h6.027v-6.027ZM9.04 3.013H3.013V9.04H9.04V3.013Zm0 6.027H3.013v6.027H9.04V9.04Zm0 6.027H3.013v6.026H9.04v-6.026Zm0 6.026H3.013v6.027H9.04v-6.027Zm0 6.027H3.013v6.027H9.04V27.12Zm0 6.027H3.013v6.026H9.04v-6.026Zm0 6.026H3.013V45.2H9.04v-6.027Zm6.027-36.16H9.04V9.04h6.027V3.013Zm0 36.16H9.04V45.2h6.027v-6.027Zm6.026-36.16h-6.026V9.04h6.026V3.013Zm0 36.16h-6.026V45.2h6.026v-6.027Zm6.027-36.16h-6.027V9.04h6.027V3.013Zm0 36.16h-6.027V45.2h6.027v-6.027Zm6.027-36.16H27.12V9.04h6.027V3.013Zm0 36.16H27.12V45.2h6.027v-6.027Zm6.026-36.16h-6.026V9.04h6.026V3.013Zm0 36.16h-6.026V45.2h6.026v-6.027ZM45.2 3.013h-6.027V9.04H45.2V3.013Zm0 6.027h-6.027v6.027H45.2V9.04Zm0 6.027h-6.027v6.026H45.2v-6.026Zm0 6.026h-6.027v6.027H45.2v-6.027Zm0 6.027h-6.027v6.027H45.2V27.12Zm0 6.027h-6.027v6.026H45.2v-6.026Zm0 6.026h-6.027V45.2H45.2v-6.027ZM21.093 15.067h-6.026v6.026h6.026v-6.026Zm0 6.026h-6.026v6.027h6.026v-6.027Zm0 6.027h-6.026v6.027h6.026V27.12Zm6.027-12.053h-6.027v6.026h6.027v-6.026Zm0 6.026h-6.027v6.027h6.027v-6.027Zm0 6.027h-6.027v6.027h6.027V27.12Zm6.027-12.053H27.12v6.026h6.027v-6.026Zm0 6.026H27.12v6.027h6.027v-6.027Zm0 6.027H27.12v6.027h6.027V27.12Zm108.48-24.107H135.6V9.04h6.027V3.013Zm0 6.027H135.6v6.027h6.027V9.04Zm0 6.027H135.6v6.026h6.027v-6.026Zm0 6.026H135.6v6.027h6.027v-6.027Zm0 6.027H135.6v6.027h6.027V27.12Zm0 6.027H135.6v6.026h6.027v-6.026Zm0 6.026H135.6V45.2h6.027v-6.027Z"/>
  <path fill="#222" d="M147.653 3.013h-6.026V9.04h6.026V3.013Zm0 36.16h-6.026V45.2h6.026v-6.027Zm6.027-36.16h-6.027V9.04h6.027V3.013Zm0 36.16h-6.027V45.2h6.027v-6.027Zm6.027-36.16h-6.027V9.04h6.027V3.013Zm0 36.16h-6.027V45.2h6.027v-6.027Zm6.026-36.16h-6.026V9.04h6.026V3.013Zm0 36.16h-6.026V45.2h6.026v-6.027Zm6.027-36.16h-6.027V9.04h6.027V3.013Zm0 36.16h-6.027V45.2h6.027v-6.027Zm6.027-36.16h-6.027V9.04h6.027V3.013Zm0 6.027h-6.027v6.027h6.027V9.04Zm0 6.027h-6.027v6.026h6.027v-6.026Zm0 6.026h-6.027v6.027h6.027v-6.027Zm0 6.027h-6.027v6.027h6.027V27.12Zm0 6.027h-6.027v6.026h6.027v-6.026Zm0 6.026h-6.027V45.2h6.027v-6.027ZM153.68 15.067h-6.027v6.026h6.027v-6.026Zm0 6.026h-6.027v6.027h6.027v-6.027Zm0 6.027h-6.027v6.027h6.027V27.12Zm6.027-12.053h-6.027v6.026h6.027v-6.026Zm0 6.026h-6.027v6.027h6.027v-6.027Zm0 6.027h-6.027v6.027h6.027V27.12Zm6.026-12.053h-6.026v6.026h6.026v-6.026Zm0 6.026h-6.026v6.027h6.026v-6.027Zm0 6.027h-6.026v6.027h6.026V27.12ZM9.04 135.6H3.013v6.027H9.04V135.6Zm0 6.027H3.013v6.026H9.04v-6.026Zm0 6.026H3.013v6.027H9.04v-6.027Zm0 6.027H3.013v6.027H9.04v-6.027Zm0 6.027H3.013v6.026H9.04v-6.026Zm0 6.026H3.013v6.027H9.04v-6.027Zm0 6.027H3.013v6.027H9.04v-6.027Zm6.027-36.16H9.04v6.027h6.027V135.6Zm0 36.16H9.04v6.027h6.027v-6.027Zm6.026-36.16h-6.026v6.027h6.026V135.6Zm0 36.16h-6.026v6.027h6.026v-6.027Zm6.027-36.16h-6.027v6.027h6.027V135.6Zm0 36.16h-6.027v6.027h6.027v-6.027Zm6.027-36.16H27.12v6.027h6.027V135.6Zm0 36.16H27.12v6.027h6.027v-6.027Zm6.026-36.16h-6.026v6.027h6.026V135.6Zm0 36.16h-6.026v6.027h6.026v-6.027ZM45.2 135.6h-6.027v6.027H45.2V135.6Zm0 6.027h-6.027v6.026H45.2v-6.026Zm0 6.026h-6.027v6.027H45.2v-6.027Zm0 6.027h-6.027v6.027H45.2v-6.027Zm0 6.027h-6.027v6.026H45.2v-6.026Zm0 6.026h-6.027v6.027H45.2v-6.027Zm0 6.027h-6.027v6.027H45.2v-6.027Zm-24.107-24.107h-6.026v6.027h6.026v-6.027Zm0 6.027h-6.026v6.027h6.026v-6.027Zm0 6.027h-6.026v6.026h6.026v-6.026Zm6.027-12.054h-6.027v6.027h6.027v-6.027Zm0 6.027h-6.027v6.027h6.027v-6.027Zm0 6.027h-6.027v6.026h6.027v-6.026Zm6.027-12.054H27.12v6.027h6.027v-6.027Zm0 6.027H27.12v6.027h6.027v-6.027Zm0 6.027H27.12v6.026h6.027v-6.026Z"/>
</svg>
